<?xml version="1.0" encoding="UTF-8"?>
<svg id="Camada_1" data-name="Camada 1" xmlns="http://www.w3.org/2000/svg" viewBox="0 0 302.24 434.23">
  <defs>
    <style>
      .cls-1 {
        fill: #d86c55;
      }
    </style>
  </defs>
  <path class="cls-1" d="M241.19,28.45c37.32,32.74,40.39,90.33,16.23,131.88-4.35,7.47-10.83,13.49-14.65,21.05.36,1.84,16.82,13.41,19.86,16.13,46.31,41.54,51.09,109.55,19.18,161.21-31.81,51.52-94.62,78.1-154.19,75.3-1.79-1.74,6.18-11.09,7.36-13.13,51.41-88.27-58.41-125.98-102.34-180.4C-13.45,183.4-9.79,110.8,37.68,55.83,85.27.71,182.67-22.89,241.19,28.45ZM147.97,121.68c1.43,1.44,9.94,9.01,11.15,9.01,22.58-16.65,43.01-47.5,33.02-76.68-10.79-31.54-50.05-35-64.23-4.19-11.58,25.15,1.97,53.62,20.06,71.86ZM97.61,49.04c-1.04-1.11-8.56,6.84-9.51,7.98-27.96,33.65-15.12,78.89,11,109.03,46.71,53.89,155.6,73.01,157.56,157.43.22,9.36-2.77,18.28-2.55,27.55,26.35-37.16,29.69-89.05-1.98-124.01-40.99-45.25-108.93-53.53-142.69-110.31-12.5-21.03-17.43-43.42-11.83-67.67ZM220.62,49.04c6.2,27.03-1.04,52.6-16.6,74.9-6.36,9.12-14.69,15.04-21.41,23.56l33.51,19.2c2.58.16,10.53-10.77,12.31-13.35,20.43-29.69,24.96-69.04.16-97.79-.88-1.01-6.91-7.71-7.96-6.52ZM45.62,115.53c-.63-6.87.46-14.53,0-21.5-6.38,6.64-10.84,18.23-13.28,27.22C-4.62,256.97,184.21,263.45,175.65,386.57c-.29,4.23-2,8.2-2.03,12.46,18.51-6.12,40.68-25.8,48.85-43.64,34.26-74.79-61.89-106.73-108.17-139.54-31.56-22.37-65.01-60.06-68.69-100.31Z"/>
</svg>