<?xml version="1.0" encoding="UTF-8"?>
<svg id="Camada_1" data-name="Camada 1" xmlns="http://www.w3.org/2000/svg" xmlns:xlink="http://www.w3.org/1999/xlink" viewBox="0 0 379.61 503">
  <defs>
    
    <linearGradient id="Gradiente_sem_nome_11" data-name="Gradiente sem nome 11" x1="42.13" y1="-106.05" x2="335.27" y2="615.53" gradientUnits="userSpaceOnUse">
      <stop offset="0" stop-color="#db6f57"></stop>
      <stop offset=".47" stop-color="#d96d56"></stop>
      <stop offset=".64" stop-color="#d26953"></stop>
      <stop offset=".76" stop-color="#c6624e"></stop>
      <stop offset=".85" stop-color="#b55747"></stop>
      <stop offset=".94" stop-color="#9f4a3d"></stop>
      <stop offset="1" stop-color="#8b3d35"></stop>
    </linearGradient>
  </defs>
  <path class="cls-2" d="M63.25,502.96c10.13-9.46,19.82-17.1,27.63-28.86,42.85-64.49-.86-148.41-48.61-196.65-5.12-2,2.97,7.81,3.79,9.21,11.11,19.04,34.54,64.98,36.1,85.91.09,1.17.6,3.22-1.4,2.39-1.21-.5-15.45-15.24-17.49-17.52C-41.14,240.62-15.33,75.84,133.27,15.49c65.75-26.7,179.83-25.13,206.74,55.22,19.66,58.69-19.68,112.09-73.74,131.76,11.56,4.17,23.36,7.36,34.65,12.33,42.25,18.6,75.31,54.86,78.37,102.63,8.79,137.05-168.58,171.18-271.55,182.53-14.78,1.63-29.62,3.31-44.49,3Z"></path>
  <path class="cls-3" d="M140.25,36.98c-38.25,51.73-25.21,118.45,23.53,157.96,42.25,34.25,111.03,53.51,125.6,112.4,15.91,64.3-33.75,125.58-93.61,142.64-2.09-1.59-.05-1.67.75-2.31,25.33-20.13,44.41-36.09,52.24-69.71,22.49-96.51-88.23-125.87-130.92-191.09-24.99-38.18-31.05-89.34-3-127.83,2.62-3.59,21.86-24.84,25.41-22.08Z"></path>
  <path class="cls-1" d="M69.25,86.98c-22.17,53.49-9.99,109.29,27.49,152.01,40.41,46.05,124.07,80.69,108.21,155.19-6.88,32.31-32.22,54.88-63.19,63.81-2.19-1.66.13-1.71.77-2.3,13.33-12.4,24.83-21.72,30.75-40.18,19.8-61.73-43.51-89.01-80.51-121.56C30.75,239.37,13.13,162.45,63.28,92.5l5.97-5.52Z"></path>
  <path class="cls-3" d="M166.26,181.97c-3.08-35.85-7.64-75.52-1.72-111.21,3.05-18.42,9.4-39.7,27.04-48.96,28.39-14.9,55.96,5.57,62.22,34.12,12.99,59.18-33.08,111.08-87.54,126.05Z"></path>
  <path class="cls-3" d="M288.25,411.97c-3.92,1.95-3.92.61,0-4,32.1-34.38,47.18-87.07,28.17-131.67-8.3-19.49-22.85-35.21-39.17-48.32,4.87.03,10.1,3.64,14.3,6.18,71.75,43.44,61.79,132.73-3.31,177.81Z"></path>
  <path class="cls-3" d="M204.26,191.97c-1.44-1.27,1.74-2.63,2.45-3.04,5.17-2.93,11.5-5.07,16.85-8.15,41.19-23.76,66.7-61.18,62.68-110.29-.63-7.67-3.95-14.9-4.49-22.51,39.09,49.47,8.64,113.89-45.23,135.76-3.98,1.62-30.91,9.42-32.26,8.23Z"></path>
  <path class="cls-4" d="M288.25,407.97c-.17,2.74-4.09,4.35,0,4-1.71,1.19-4.64,4.77-7.01,3.49.94-3.35,4.93-5.26,7.01-7.49Z"></path>
</svg>